<?xml version="1.0" encoding="utf-8"?>
<!-- Generator: Adobe Illustrator 19.1.0, SVG Export Plug-In . SVG Version: 6.00 Build 0)  -->
<svg version="1.1" id="Layer_1" xmlns="http://www.w3.org/2000/svg" xmlns:xlink="http://www.w3.org/1999/xlink" x="0px" y="0px"
	 viewBox="0 0 652.5 212.6" style="enable-background:new 0 0 652.5 212.6;" xml:space="preserve">
<style type="text/css">
	.st0{fill:#4E5044;}
	.st1{fill:#FFFFFF;}
	.st2{fill:#FFD700;}
	.st3{fill:#FFBC3C;}
</style>
<polyline class="st0" points="385.7,153.7 398.5,147.2 623.5,147.2 623.5,160.2 398.9,160.2 385.7,153.7 "/>
<polyline class="st1" points="392.9,153.7 398.8,150.1 623.5,150.2 623.5,157.2 398.9,157.3 392.9,153.7 "/>
<path class="st0" d="M623.5,171.3c25-16.4,0-34,0-34v9.9V171.3z"/>
<polyline class="st0" points="631.5,147.2 652.5,147.2 652.5,160.2 633.4,159.9 "/>
<path class="st2" d="M139,57.3c-0.1,1.8-0.5,5-1.1,9.8c-0.5,3.7-0.7,6.6-0.7,8.8c0,1.9,0.2,3.7,0.5,5.4c-0.7,0.7-1.1,1.4-1.1,2.4
	c0,0.4,0.1,1.1,0.3,2.1c0.2,1,0.3,1.7,0.3,2.2c-0.8,1.1-1.9,1.7-3.3,1.7c-0.8,0-1.5-0.2-1.9-0.7c0.5-1.8,0.7-3.6,0.7-5.3
	c0,0-0.2-0.7-0.6-1.9c0-0.8-0.2-1.9-0.5-3.3c-1.7-2.9-2.6-4.3-2.7-4.4c-1.2-1.8-2.5-3.1-3.7-4c-3.6-2.5-7.4-4.2-11.4-5.2
	c-2.5-0.6-3.6-0.9-3.1-0.9H97c-2.1,0.5-5.2,1.3-9.4,2.4c-4.8,1.6-9.3,4.6-13.5,9.1c-0.6,0.6-1.9,3-3.9,7.2c-2.9,6-4.3,10.9-4.3,14.6
	c0,0.6,0.1,1.1,0.2,1.4c0.1,0.2,0,0.5-0.1,1c-0.2,0.6-0.3,0.9-0.3,1.1c-0.4,4.3-0.5,7.1-0.3,8.3c0,0,0.1,0.3,0.2,0.6
	c0.2,0.4,0.2,0.7,0.2,1c-0.1,1.4,0.2,4.8,0.9,10.2c0,1.3,0.2,3.3,0.5,6c0.4,0.7,1,1.6,1.7,2.9c0.2,0.8,0.5,1.9,0.9,3.3
	c1,1.2,2.3,3.1,3.9,5.6c1.7,3.7,3.4,6.3,5.2,7.8c1.7,1.2,4.3,3,7.6,5.4c0.3,0.8,0.8,1.8,1.5,3.2c0.4,0,1.2-0.1,2.1-0.3
	c1-0.2,1.7-0.3,2.2-0.3c0.5,0,1.9,0.2,4.1,0.7c2.3,0.5,3.9,0.8,5.1,0.9c3.9,0.2,8.3-0.1,13.2-1.1c1.2-0.2,3.1-0.5,5.7-0.9
	c2.2-0.3,4.5-1.7,6.9-4.2c2.2-2.2,4-4.9,5.5-7.9c0-0.1,0.2-1.3,0.5-3.6c0.2-0.7,0.5-1.7,0.8-3c0-1.5,0.2-3.7,0.5-6.7
	c0.4-0.1,0.7-0.2,1.1-0.2c1.6,0,2.4,2,2.5,5.9c0.2,6.1-0.1,12.1-0.7,17.9c-0.1,1.8-0.6,4.2-1.5,7.3c-0.4,0.7-2.1,1.4-5,2.2
	c-4.3,1.2-7.6,1.9-9.8,2.3c-2,0.2-5.1,0.6-9.2,1.1c-3.4,0.4-6.6,0.6-9.7,0.6c-5.6,0-10.5-0.7-14.7-2.1c-0.6,0-1.3-0.1-2.2-0.2
	c-0.8-0.4-1.8-0.9-3.1-1.4c-6.1-1.7-12.2-5.4-18.3-11c-6.4-5.9-10.5-12-12.5-18.3c-0.5-1-1.2-2.5-2-4.6c0-0.4-0.1-1.1-0.2-2
	c-0.5-0.9-1.1-2.2-1.7-4c-0.3-1.4-0.6-3.5-0.9-6.3c0-1.6,0.1-5.5,0.3-11.6c0-1.4,1.2-7.3,3.5-17.6c0.8-1.4,2-3.5,3.6-6.3
	c1.2-2.3,2.2-3.9,2.8-4.8c1.4-2.1,2.5-3.2,3.4-3.6c1.2,0.1,2.1,0,2.4-0.4c2.5-2.6,6.2-6.4,11.1-11.3c0.4,0.1,0.9,0.1,1.6,0.1
	c0.6-0.6,1.6-1.3,2.8-2.1c0.6,0.2,1.6,0.3,2.9,0.4c3-0.9,7.6-2.1,13.6-3.4c2.2-0.3,5-0.5,8.2-0.5h10.7l13.3,1.2
	c0.1,0,2.4,0.1,6.8,0.2C136,56.4,137.8,56.7,139,57.3z"/>
<path class="st2" d="M205,140.5c-0.6,0.3-1.5,0.4-2.7,0.3c-2-0.2-2.9-0.3-2.8-0.3h-4.1c-5,0-8.9,0.3-11.7,0.8
	c-1.5,0.3-2.6,0.1-3.1-0.5c-0.1-1,0-1.9,0.2-2.6c0.7-0.1,1.6-0.3,2.9-0.7c0.5-0.3,0.9-0.8,1.2-1.5c0.3-0.7,0.3-1.3,0.2-1.7
	c-0.4-2-1.1-5-2.1-9c-0.1-0.2-0.4-1.2-1.1-2.9c-0.6-1.4-0.8-2.4-0.8-3.1c0-0.2-0.3-0.3-0.7-0.3c-0.6,0-3.4,0.1-8.5,0.4l-10.9,0.2
	c-0.8,0-1.5,0.7-2.2,2.2c-0.3,0.8-0.8,1.9-1.4,3.3c-0.8,2.4-1.2,3.8-1.1,4.3c0-0.2-0.2,0.8-0.5,3.1c-0.2,1.6-0.2,2.7,0,3.3
	c0.1,0.3,0.7,0.9,1.6,1.6c0.9,0.8,1.7,1.3,2.3,1.5c0.2,0.1,0.4,0.2,0.8,0.3c0.3,0.5,0.5,0.9,0.7,1.1c-0.7,0.2-1.7,0.4-3,0.7
	c-2-0.1-4.9-0.2-8.6-0.3c-0.8,0.2-2,0.4-3.7,0.6c-0.1,0-1.3-0.2-3.8-0.5c-0.1-0.2-0.1-0.3-0.1-0.5c0-0.4,0.5-1,1.5-1.8
	c0.4-0.5,1-1.2,1.9-2c0.8-0.5,1.5-1.4,2.1-2.7c0.6-1.3,1.5-3.2,2.7-5.9c0.5-1.6,1.3-4.1,2.3-7.5c0.7-1.6,1.6-4,2.6-7.2
	c0.8-2.4,1.9-5.9,3.5-10.6c0.1-0.1,0.3-0.3,0.5-0.6c0.1,0.6,0.2,0.8,0.4,0.8c0.2,0,0.5-0.7,0.9-2.2c0.3-1.3,0.5-2.3,0.5-2.9
	c0-0.1,0-0.2-0.1-0.2c-0.1,0.1-0.2,0.4-0.4,0.9c0-0.3,0-0.8,0.1-1.4c0.6-1.4,1.3-3.6,2.3-6.4c0.2-1.3,1-3.3,2.2-6
	c0.2-0.6,0.4-1.5,0.8-2.7c0.3-1,0.9-2.6,1.8-4.6c0.1-0.4,0.4-1.1,0.8-1.9c0.2-0.2,1-0.3,2.4-0.2c1.3,0,3.4,0.2,6.1,0.4
	c0.9,2.6,2.5,6.7,4.8,12.3c0.1,0.7,0.3,1.6,0.6,2.9c0.6,1.6,1.3,3.1,2.2,4.5c-0.2,0.2,0,1.1,0.4,2.7c0.5,1.2,1.3,3.1,2.4,5.5
	c0.7,2.4,1.8,5.7,3.4,9.9c0.1,1,0.4,2.3,1,4.1c0,0.3,0.1,0.7,0.3,1.3c0.4,0.9,1.2,2.6,2.2,5.2c0.4,0.6,0.9,1.4,1.5,2.5
	c0,0.3,0,0.7,0.1,1.1c0.5,1.4,1.2,3.4,2.2,5.9c0.3,0.6,0.9,1.6,1.8,3.2c0.2,0.4,1.2,0.9,2.9,1.6c0.5,0.2,1.3,0.4,2.3,0.8V140.5z
	 M178.5,113.5c0,0-1.3-3.5-3.8-10.3c-0.4-1.4-1-3.4-1.9-6.1c-0.4-0.8-1-2-1.6-3.6c-0.2-0.7-0.6-1.8-1.1-3.1
	c-1.2,2.8-2.6,5.7-4.1,8.6c-0.2,0.2-0.4,0.5-0.7,1c-0.1,0.5-0.3,1.3-0.6,2.4c-0.2,0.5-0.5,1.2-0.9,2.1c0,0.6-0.1,1.3-0.3,2.3
	c-0.2,0.3-0.5,0.8-0.8,1.4c-0.2,0.8-0.4,1.9-0.8,3.3c-0.2,0.3-0.4,0.7-0.7,1.1c0.1-0.4,0.1-0.1,0.1,0.9H178.5z"/>
<path class="st2" d="M251.3,76.4c-0.2,1.3-0.4,2.9-0.7,4.7v12c-0.2,0-0.5,0.1-0.9,0.2c-0.4,0.1-0.8,0.2-0.9,0.2
	c-0.1-0.3-0.3-2.3-0.8-6.1c-0.3-2.2-1.3-3.9-3-5.1c-0.8-0.5-2.5-0.5-5.4,0.1c-1.4,0.1-3.4,0.5-6.1,1c-0.9,0.3-1.5,0.9-1.8,1.8
	c-0.6,2.2-0.6,5.4-0.2,9.5c0.5,4.2,0.3,9.9-0.4,17.2c0,0,0.2,2.3,0.7,7.1c-0.1,1.6-0.2,4.1-0.1,7.4c0.4,1.8,0.9,4.4,1.6,8
	c0.3,1.7,1.5,2.8,3.5,3.3c1.6,0.4,3.2,0.7,4.7,1.1c0,0.5-0.4,1.3-1.2,2.3h-29.2c-0.3,0-0.4-0.2-0.4-0.6c0-0.1,0-0.4,0.1-0.8
	c1.1-0.2,2.6-0.7,4.7-1.5c1.8-1,3.1-2.1,4-3.5c0.2-0.4,0.5-1.9,0.7-4.6c0.1-4.7,0.3-9.7,0.5-14.9V96.4h1.4c0.1,0,0.2-0.2,0.4-0.5
	c-0.5-1.1-1.1-2.8-1.8-4.9c-0.1-0.4-0.3-3-0.8-7.9h-9.5c-1,0-2.2,0.6-3.7,1.6c-1.5,1.1-2.3,2-2.4,2.7c-0.7,3.1-1.4,5.2-2.1,6.3
	c-0.3,0.6-1.1,0.9-2.3,0.9c0-0.1-0.1-0.6-0.2-1.3c-0.1-0.6-0.1-1.1-0.1-1.3c0.4-1.4,0.8-3.6,1.2-6.5c0.4-3.6,0.8-6,1-7.2l1.6-2.2
	c-1-0.1,2.1-0.2,9.4-0.2c2.1,0,5.4,0.2,9.7,0.6c4.3,0.4,6.4,0.6,6.3,0.6h8.5c0,0,1-0.2,3.1-0.5c2.3-0.3,4.5-0.6,6.5-0.7
	c0.8-0.1,1.6-0.2,2.4-0.3C250.3,75.5,251,75.7,251.3,76.4z"/>
<path class="st2" d="M382.1,161.5c-0.7,0.8-2.8,1.5-6.3,2.2c-2,0.4-4.9,1-8.9,1.8c-1.3,0.3-2.6,0.4-3.9,0.4c-0.9,0-3.9-0.5-9-1.4
	c-0.9,0-2.1-0.1-3.8-0.4c-0.2-0.2-0.7-0.5-1.2-0.8c-1.8-0.3-4.1-1.2-6.9-2.4c-4.2-1.9-6.4-2.9-6.8-3.1c-0.2-0.4-0.6-1-1.1-1.9
	c-0.4,0-1-0.1-1.8-0.4c-0.7-0.7-1.7-1.4-3-2.3c-1.1-0.6-2-1.5-2.7-2.7c-0.3-0.5-0.6-0.8-1.1-0.9c-2.3-0.3-5.3-0.4-9.1-0.5
	c-1.6,0-4.1-0.7-7.4-2c-2.1-0.8-4.1-1.5-6.2-2.3c-2.6-1.1-4.7-2.2-6.2-3.5c-8.7-7.1-14.2-15-16.3-23.5c-0.7-1.8-1.4-4.4-2.1-7.8
	c-0.2-5.7,0-10.3,0.5-13.9c0.3-0.6,0.6-1.5,1.1-2.6c0.3-1.3,0.8-3.2,1.4-5.8c1-1.6,2.3-3.8,3.9-6.8c0.2-0.5,0.4-1.1,0.4-1.8
	c0.2-0.2,0.7-0.2,1.3,0.2c0.2-0.6,0.2-1.5,0-2.7c0.6-0.2,1.4-0.5,2.5-1.1c0.3-0.9,1.2-2.1,2.6-3.4c2.6-1.4,6.7-3.6,12.1-6.3
	c1.4-0.7,3.2-1.3,5.3-1.8c5.5-1.2,9.2-1.9,11.2-1.9h5.3c4.1,0,7.5,0.4,10.5,1.2c1.4,0.4,4.9,1.6,10.3,3.7c1.2,0.7,3,1.9,5.4,3.4
	c3.5,2.2,6.6,5.3,9.5,9.2c2.5,3.5,4.2,6.7,5,9.6c0.4,0.5,0.8,1.2,1.4,2.3c1,2.7,1.5,6.7,1.7,11.9c0,0.2,0.1,0.6,0.3,1.2
	c0.2,0.7,0.3,1.2,0.3,1.5c0,2.5-0.1,4.5-0.3,5.8c-0.4,1-0.9,2.6-1.3,4.8c-0.1,2.2-0.6,4.5-1.4,6.9c-0.7,0.9-1.8,2.3-3.1,4.3
	c-0.4,1.3-1.4,3.3-2.9,5.8c-1.2,1.5-3.2,3.5-6,6c-3.3,2.1-7.3,4.3-12.1,6.8c0.3,1.1,1.3,2.3,3.1,3.6c2.2,1.6,3.4,2.6,3.7,3
	c0.3,0.2,0.8,0.4,1.4,0.7c0.2,0.1,0,0.8-0.8,2c0.7,0,1.6-0.4,2.8-1.4c0.2,0.1,0.6,0.3,1.1,0.6c2.2,1.2,5.3,2.7,9.3,4.4
	c1.2,0,3.2,0.2,5.8,0.4c0.7,0.1,1.9,0.2,3.5,0.2c0.2,0,0.5,0.1,0.9,0.3c0.4,0.2,0.8,0.4,1.1,0.4c1.9,0.1,4.2-0.1,6.9-0.7
	C381.9,161.5,382,161.9,382.1,161.5z M355.4,107.9c-0.4-5.7-1.5-10.8-3.3-15.5c-2.3-6-5-10.7-8.1-14.2c-4.4-4.8-9.2-7.6-14.4-8.5
	c-5-0.8-8.3-1.1-10.2-0.9c-3.6,0.4-6.6,1.2-9.1,2.4c-0.3,0.1-2.3,1.3-6.1,3.6c-0.3,0.4-0.7,1-1.3,1.6c-0.3,0.1-0.7,0.2-1.2,0.4
	c-0.9,1.2-2,2.8-3.3,4.7c-0.2,0.6-0.5,1.3-0.9,2.3c-0.7,1.1-1.4,2.3-2.2,3.8c-0.4,1.6-1.1,4.1-1.9,7.4c0,1.3,0,3.2-0.1,5.7
	c0,0.1-0.1,0.4-0.3,0.9c-0.2,0.4-0.3,0.8-0.2,0.9c0.7,2.9,1.5,7,2.7,12.1c0,0.1-0.2,0.1-0.6,0.1c-0.8,0-2.8-0.2-6-0.5
	c-1.4-0.1-2.8-0.2-4.3-0.3c0.1,0.2,1.1,0.6,3.2,1.3c2.1,0.7,3.7,1.1,5,1.2l-3.5,1.5l2.3,0.7l3.2-2.8l1.2,1.5
	c0.4,0.1,0.6,0.2,0.6,0.5l0.1,0.6c0,0.6,0.2,1.3,0.4,2.3c1.9,3.8,2.9,5.7,2.9,5.8c1.4,2.3,3.2,4.5,5.6,6.6c0,0,0.3,1,0.9,2.8
	c0.2,0,0.9,0.2,2.3,0.4c2.2,2.1,3.9,3.4,5.1,4.1c1.6,1,4.5,1.6,8.8,1.9c3.4,0.2,6.5,0.2,9.2-0.1c0.7-0.2,1.6-0.5,2.8-0.9
	c1.5-0.3,3.6-1,6.3-2.2c0.7-0.6,1.5-1.3,2.5-2.1c1.8-1.1,3.4-2.7,5-4.7c1.6-2,2.6-3.9,2.9-5.6c0.5-0.5,1-1.3,1.6-2.3
	c0.1-0.8,0.2-1.8,0.4-3c0.3-0.3,0.6-0.7,0.9-1.3c0.1-1,0.3-3.3,0.7-6.7C355.3,110.9,355.4,108.9,355.4,107.9z"/>
<path class="st2" d="M438.4,75.7c0,1.3-0.2,1.9-0.7,2c-0.7,0.1-1.6,0.3-2.9,0.6c-0.5,0-1.3,0.2-2.3,0.6c-1.2,1.1-1.9,2.6-2.1,4.6
	c-0.1,0.2-0.2,0.4-0.4,0.8c-0.2,1.9-0.2,3.1-0.2,3.6c0.5,3.1,0.7,4.7,0.7,4.7v4c0,0.1-0.1,0.4-0.2,0.8c-0.1,0.4-0.2,0.7-0.2,0.8
	c0,0.2,0,0.7,0.1,1.4c0.3,2.8,0.5,6.3,0.5,10.8c0,0-0.1,0.1-0.2,0.3c-0.1,0.2-0.2,0.3-0.2,0.4c0,3.3,0,4.7,0.1,4
	c-0.1,1.8-0.5,4.5-1,8.1c-0.2,1.1-0.8,2.7-1.8,4.9c-1,2.2-1.8,3.7-2.5,4.7c-0.8,1.1-2.3,2.4-4.5,4c-1.8,1.3-3.5,2.5-5.3,3.8
	c-0.5-0.4-2-0.2-4.4,0.4c-0.5,0.3-1.2,0.7-2.3,1.1c-0.2,0.1-0.4,0-0.8-0.2c-0.4-0.2-0.6-0.3-0.6-0.3h-3.8c0.5,0-0.4-0.2-2.6-0.7
	c-0.8,0-1.9-0.2-3.4-0.4c-0.9-0.5-2.3-1.1-4.1-1.8c-0.6,0-1.4-0.1-2.5-0.3c-0.4-0.1-1-0.4-2-1c-6.2-3.6-9.4-9.7-9.7-18.4l-0.5-16.3
	c-0.2-4.5-0.7-11.2-1.4-20.1c-0.2-2-0.9-3.3-2.2-4.1c-0.4-0.3-2-0.8-4.9-1.5c-0.1-0.2-0.2-0.4-0.2-0.6c0-0.7,0.6-0.9,1.8-0.7
	c2.7,0.4,5.8,0.6,9.2,0.6h5c0.1,0,0.6-0.1,1.4-0.2c0.9-0.1,1.5-0.2,2-0.2c1.7,0.1,4.1,0,7.4-0.2c0.3,0.3,0.4,0.7,0.4,0.9
	c0,0.6-1.1,1-3.2,1.3c-0.2,0.1-0.5,0.4-0.9,0.7c-0.2,0.1-0.6,0.3-1,0.6c-0.6,0.5-1,0.9-1,1.3c-0.6,3.1-1.4,6.5-2.2,10.2
	c0-0.1,0.2,0.5,0.5,1.7c0,0-0.1,0.9-0.4,2.7c0.1,0.6,0.1,2-0.3,4.1c0.1-0.4,0.3,0.9,0.6,3.8c0,0.4-0.1,2-0.3,4.5
	c0,0.2,0.1,0.4,0.2,0.7c0,0.2-0.1,1.4-0.4,3.8c-0.1,0.8,0.1,2.4,0.5,4.9c0.2,0.3,0.4,0.7,0.7,1.2c0,0.1,0.1,1.3,0.3,3.5
	c0,0.4-0.1,1-0.1,1.9c0.2,0.4,0.4,0.9,0.7,1.6c0.1,0.3,0.1,0.7-0.1,1.3c0.4,0.6,1,1.4,1.8,2.5c0.4,0.8,1.2,1.8,2.5,3.1
	c0.9,0.7,1.9,1.4,2.8,2.2c1.3,0.9,2.5,1.5,3.5,1.6c0.9,0.1,2,0.2,3.2,0.2h6.9c1.9,0,3.9-1.1,6-3.3c2-2.1,3.3-4.2,3.9-6.4
	c0.3-1.9,0.6-4.2,1-6.9c0.3-1.8,0.3-4.2,0-7.3l0.1-24.4c-0.2-2-0.8-4.4-1.6-7.1c-0.3-1.1-1.7-2-3.9-2.6c-0.4-0.1-1.1-0.3-2.2-0.5
	c-0.2-0.3-0.3-0.8-0.3-1.3c-0.2,0,0.4-0.1,1.6-0.2c2.6-0.3,5-0.2,7.4,0.3c0.4-0.1,1-0.1,1.7-0.1c1.3,0.2,3.6,0.2,6.8-0.1
	c0.1,0,0.4,0,0.8,0c0.4,0.1,0.6,0.1,0.8,0.1C433.8,76.1,435.4,76,438.4,75.7z"/>
<path class="st2" d="M489.6,123.7c-0.1,1.8-0.3,4.3-0.7,7.6c-0.4,0.9-0.9,2.1-1.5,3.8c-0.1,0.7-0.4,1.6-0.8,2.9
	c-0.1,0.4-0.6,1-1.3,1.9c-0.9,1.1-1.6,1.7-2.2,1.7H470c-0.2,0-1.8-0.1-4.6-0.2c-2.9-0.1-4.4-0.2-4.6-0.2h-7.9
	c-0.2,0-1.3-0.1-3.2-0.3c-1.9-0.2-3-0.3-3.2-0.3h-7.8l-0.7-0.7c0.4-0.5,1.9-1.5,4.5-3.1c1.8-1.1,2.7-2.5,2.7-4.1v-16.3
	c0-2.6,0.4-6.2,1.2-10.7c-0.4-1.4-0.5-3.1-0.3-5.2c-0.6-0.5-0.9-1.2-0.9-2.2c0-0.1,0.3-1.5,1-4.2c0-0.2-0.1-0.7-0.5-1.4
	c-0.5-0.9-0.7-1.3-0.8-1.3c-0.2-0.7-0.3-1.9-0.3-3.4c0-2.1,0-3.3,0-3.5c-0.1-1.2-0.3-2.1-0.7-2.8c-0.5-1-1.4-1.8-2.5-2.4
	c-1-0.4-2.1-0.9-3.1-1.4c0.5-1.1,1-1.7,1.5-1.8c1.1,0.1,2.6,0.1,4.6,0c2.2-0.4,3.3-0.7,3.2-0.7h9.1c0.1,0,1.2,0.1,3.1,0.3
	c1.9,0.2,3.4,0.3,4.4,0.4c0.4,0,3.8-0.2,10.3-0.7c1.5-0.1,5.3,0,11.6,0.3c0.5,0.4,0.8,0.8,0.8,1.4c0,0.3-0.1,0.8-0.3,1.3
	c-0.2,0.6-0.3,1-0.3,1.3c0,1.1-0.4,4.9-1.1,11.3c-0.1,0.2-0.6,0.5-1.5,1c-0.2-0.3-0.8-2.2-1.9-5.5c-0.7-2.2-2-3.4-3.8-3.6
	c-0.8-0.2-1.5-0.3-2.3-0.5c-1.1-0.2-1.9-0.3-2.5-0.1c-1.5,0.4-4.8,0.4-9.9,0.1c-2.8-0.2-4.9-0.2-6.3,0.2c-0.4,0.1-0.7,0.5-0.8,1.2
	c1.3,4,1.3,7.6,0.2,10.7c0.1-0.2,0.1,0.7,0.1,2.6c0,0.5-0.1,1.5-0.2,3c-0.2,1.2-0.2,2.2-0.1,3c0,0.3,0.4,0.8,1,1.3h19.4
	c0.6-0.2,1.2-0.4,1.8-0.6c1-0.3,1.6-0.9,2-1.6c0.3-0.9,1-2.1,1.9-3.7c1.1,0,1.8,0.4,2.1,1.1c-0.1,2-0.3,4.5-0.4,7.5
	c0,2-0.3,5-0.7,8.9c-0.1,0.6-0.8,0.8-2.1,0.6c-0.4-0.8-1.2-1.9-2.4-3.2c-2.1-1.6-4-2.4-5.7-2.4H466c-0.4,0-1.3-0.1-2.6-0.3
	c-1.3-0.2-2.3-0.3-2.9-0.3c-1.8,0-3,0.5-3.4,1.6c-0.5,1.2-0.8,2.1-0.8,2.8c0,0.6,0.1,1.8,0.4,3.5c0.2,1.7,0.3,3,0.3,4
	c0,0.5-0.2,1.4-0.5,2.7c-0.3,1.3-0.4,2.4-0.4,3.1c0,0.6,0.1,1.1,0.2,1.6c0.2,0.8,1.2,1.8,2.8,3c1.6,1.2,3,1.8,4.2,2
	c0.2,0.1,0.3,0.1,0.5,0.2c0.3,0.1,0.7,0.2,0.9,0.2h8.5c1.9,0,3.5-0.3,4.8-0.9c1.8-0.8,3.6-2.2,5.3-4.1c1.9-2.1,2.9-4.2,3-6.1
	C487.2,123.4,488.3,123.3,489.6,123.7z"/>
<path class="st2" d="M539.2,124c0,0.8-0.4,2.2-1.2,4.5c-0.8,2.2-1.4,3.6-1.8,4.1c-1.6,2-3.3,3.7-5.2,5.2c-1,0.8-2.3,1.4-3.9,2
	c-4.2,1.3-8.1,2-11.8,2c0.1,0-0.6,0-2-0.1c-1.2-0.1-2.1-0.1-2.7-0.1c0.1,0.3,0.2-0.3,0.2-1.8c-0.9-0.8-2-1.2-3.4-1.2
	c-0.5,0-1,0.2-1.4,0.7c0.1,0.1,0.6,0.3,1.5,0.7c-0.2,0.6-0.6,0.9-1.2,0.9c-0.7,0-2.1-0.3-4.4-0.8c-3-0.7-5.1-1.5-6.4-2.5
	c-0.3-0.2-0.7-1.6-1-4.1c-0.3-2-0.4-4.5-0.4-7.5c0-2.7,0.1-4.9,0.4-6.5c0.2,0,0.7,0,1.7-0.2c0.3,0.3,0.4,1,0.4,2
	c0,1.2-0.1,1.8-0.1,1.8c0.2,0.8,0.4,2,0.8,3.7c0,0.2,0.5,1,1.4,2.3c0.5,0.8,1.4,2,2.8,3.4c1.1,0.9,2.7,1.6,4.6,2.1
	c1,0.3,2.1,0.6,3.1,1c1.3,0.4,2.4,0.6,3.2,0.6c0.3,0.2,0.6,0.3,0.8,0.3c0.1,0,0.3,0,0.6-0.1c0.3-0.1,0.5-0.1,0.6-0.1
	c0.2,0,0.8,0.1,2,0.4c1.1,0.3,1.8,0.4,1.9,0.4c0.1,0,0.5-0.2,1-0.6c0.5-0.4,0.9-0.6,1.2-0.7c1-0.2,2.4-0.5,4.2-0.9
	c1-0.2,1.7-1.1,2.3-2.8c0.2-0.4,0.6-1.1,1-2c0-0.2,0-0.6,0.1-1.1c0.1-0.2,0.3-0.7,0.6-1.3c0.3-0.6,0.5-1,0.5-1.2
	c0-1.3-0.2-2.4-0.5-3.2c-0.2-0.5-0.9-1.8-2.1-3.7c-0.4-0.3-0.9-0.7-1.7-1.2c-3-2.4-5.9-4.1-8.7-5c-0.8-0.4-1.9-1-3.3-1.8
	c-1.7-0.7-4.5-2.3-8.3-4.6c-0.3-0.1-0.7-0.3-1.2-0.5c-1-0.9-2.1-2-3.2-3.4c-1.6-2-2.4-3.1-2.6-3.2c0-0.5,0-1.2-0.1-2.2
	c-0.2-0.3-0.5-0.9-0.9-1.7c0-0.7-0.1-1.7-0.2-3c0.2-0.3,0.3-0.5,0.3-0.7c-0.4-0.9-0.6-1.3-0.6-1.3c0,0.1,0.4-0.7,1.1-2.4
	c0.1-0.8,0.3-1.8,0.7-3.1c0.1-0.3,1-1.3,2.7-2.9c0.8,0.4,1.2,0.6,1.1,0.6c0.1-0.4,0.3-1,0.6-1.7c3.2-3,6.1-4.9,8.7-5.6
	c2.2-0.5,5.1-0.8,8.7-0.8c0.2,0,1.9,0.2,5.2,0.6c3.3,0.4,5,0.6,5.2,0.6c0.1,0,0.9-0.1,2.3-0.3c1.4-0.2,2.2-0.3,2.3-0.3
	c1,0,1.4,0.4,1.4,1.2l-0.8,8.5v4.5c0,0.1,0,0.7-0.1,1.8c-0.1,1.1-0.1,2-0.1,2.5c0,0-0.1,0.1-0.3,0.2c-0.2,0.1-0.4,0.2-0.5,0.2h-1.2
	c-0.1-1.1-0.3-2.7-0.7-4.7c-1.1-4.1-3.3-6.7-6.7-7.9c-1.8-0.6-4.8-0.9-9.2-0.9c-0.8,0-2.2,0.3-4.2,1c-1.7,0.6-3.4,2.1-4.9,4.5
	c-0.5,0.9-0.8,1.8-0.8,2.8c0,1.6,0.5,3.6,1.6,5.8c0.4,0.4,1.1,1,1.9,1.7c2.4,2.4,5.9,4.5,10.6,6.4c7.4,3,12.5,6.4,15.4,10
	c1.1,1.3,1.8,2.9,2.2,4.7C539,119.7,539.2,121.8,539.2,124z"/>
<path class="st2" d="M590.4,76.4c-0.2,1.3-0.4,2.9-0.7,4.7v12c-0.2,0-0.5,0.1-0.9,0.2c-0.4,0.1-0.8,0.2-0.9,0.2
	c-0.1-0.3-0.3-2.3-0.8-6.1c-0.3-2.2-1.3-3.9-3-5.1c-0.8-0.5-2.5-0.5-5.4,0.1c-1.4,0.1-3.4,0.5-6.1,1c-0.9,0.3-1.5,0.9-1.8,1.8
	c-0.6,2.2-0.6,5.4-0.2,9.5c0.5,4.2,0.3,9.9-0.4,17.2c0,0,0.2,2.3,0.7,7.1c-0.1,1.6-0.2,4.1-0.1,7.4c0.4,1.8,0.9,4.4,1.7,8
	c0.3,1.7,1.5,2.8,3.5,3.3c1.6,0.4,3.2,0.7,4.7,1.1c0,0.5-0.4,1.3-1.2,2.3h-29.2c-0.3,0-0.4-0.2-0.4-0.6c0-0.1,0-0.4,0.1-0.8
	c1.1-0.2,2.6-0.7,4.7-1.5c1.8-1,3.1-2.1,4-3.5c0.2-0.4,0.5-1.9,0.7-4.6c0.1-4.7,0.3-9.7,0.5-14.9V96.4h1.4c0.1,0,0.2-0.2,0.4-0.5
	c-0.5-1.1-1.1-2.8-1.8-4.9c-0.1-0.4-0.3-3-0.8-7.9h-9.5c-1,0-2.2,0.6-3.7,1.6c-1.5,1.1-2.3,2-2.4,2.7c-0.7,3.1-1.4,5.2-2.1,6.3
	c-0.3,0.6-1.1,0.9-2.3,0.9c0-0.1-0.1-0.6-0.2-1.3c-0.1-0.6-0.1-1.1-0.1-1.3c0.4-1.4,0.8-3.6,1.2-6.5c0.4-3.6,0.8-6,1-7.2l1.6-2.2
	c-1-0.1,2.1-0.2,9.4-0.2c2.1,0,5.4,0.2,9.7,0.6c4.3,0.4,6.4,0.6,6.3,0.6h8.5c0,0,1-0.2,3.1-0.5c2.3-0.3,4.5-0.6,6.5-0.7
	c0.8-0.1,1.6-0.2,2.4-0.3C589.3,75.5,590,75.7,590.4,76.4z"/>
<path class="st2" d="M603.3,127.1h1.6c0.8,2.3,2.8,4.6,6,7.1v1.3c-2.8,2.2-4.6,4.4-5.4,6.6h-1.6c-1.1-2.8-3.3-5-6.7-6.5v-1.5
	C599.8,132.9,601.8,130.6,603.3,127.1z M610.8,68.8l2.1,1.3c-0.1,0.4-1.5,9-4.3,25.7c-2.5,15.1-3.9,22.7-4.1,22.7
	c-0.6,0-0.9-0.3-0.9-0.8v-1.4c0-17.8-0.7-30.4-2.2-37.7c-0.3-1.3-0.9-2.4-1.9-3.2c-1-0.8-1.5-1.3-1.5-1.4c0-0.3,1.8-1,5.3-2.2
	C607.3,70.3,609.8,69.3,610.8,68.8z"/>
<g>
	<path class="st3" d="M37.6,82c-1.9-1-4-1.9-5.8-3c-2.7-1.7-5.6-2.4-8.7-1.8c-2.3,0.4-4.2-0.4-5.8-2c-1.9-2-2.2-4-0.7-6.3
		c2.4-3.8,5.9-6.5,9.8-8.5c6.6-3.4,10.2-2.3,14.3,3.8c2.4,3.6,3.8,7.5,4.6,11.6c0.1,0.5,0.1,1.1,0.1,1.6c0,3.6-2,5.4-5.6,4.9
		c-0.7-0.1-1.4-0.2-2-0.3C37.7,81.9,37.6,82,37.6,82z"/>
	<path class="st3" d="M35.2,47.5c-0.6,1.8-1.5,3.5-3.3,4.5c-2,1-4,0.6-5.6-1.1c-3-3.4-3.5-9.8-1-13.6c2.2-3.3,5.8-3.5,8.1-0.2
		C35.7,40.2,36.1,43.7,35.2,47.5z"/>
	<path class="st3" d="M38,46.9c1.3-4.2,3.3-7.2,7.5-8.1c2.1-0.5,3.8,0.5,4.6,2.4c2.1,5-1.1,12.3-6.3,14c-3.4,1.2-6.3-1.3-6.2-5.4
		C37.6,48.7,37.9,47.6,38,46.9z"/>
	<path class="st3" d="M23,58.6c-0.4,0.8-0.8,1.6-1.4,2.3c-1.7,2.3-4.3,2.6-6.6,0.9c-4.1-3.1-5-9.7-1.9-13.3c1.6-1.9,4.3-2.2,6.3-0.7
		C22.3,49.9,23.9,54.9,23,58.6z"/>
	<path class="st3" d="M57.7,61.7c-1.4,3.4-3.9,6.1-7.9,6.7c-3.4,0.6-5.9-1.8-5.5-5.2c0.5-4,2.6-7,6.4-8.6c2.1-0.9,4.3-0.9,6,0.8
		C58.5,57.2,58.3,59.3,57.7,61.7z"/>
</g>
<g>
	<path class="st3" d="M106.3,127.4c-2.1-0.5-4.3-0.9-6.4-1.6c-3.1-1-6-1-8.9,0.3c-2.1,0.9-4.2,0.7-6.1-0.6c-2.4-1.5-3.1-3.3-2.2-6
		c1.5-4.3,4.1-7.7,7.5-10.6c5.6-4.8,9.3-4.7,14.8,0.3c3.1,2.9,5.5,6.3,7.2,10.2c0.2,0.5,0.4,1,0.5,1.6c0.9,3.5-0.6,5.7-4.3,6
		c-0.7,0.1-1.4,0.1-2,0.2C106.3,127.3,106.3,127.4,106.3,127.4z"/>
	<path class="st3" d="M95.8,94.5c-0.2,1.9-0.6,3.8-2.2,5.2c-1.7,1.5-3.8,1.5-5.7,0.2c-3.8-2.6-5.7-8.7-4.2-13
		c1.3-3.8,4.8-4.7,7.8-2.1C94.4,87.3,95.7,90.6,95.8,94.5z"/>
	<path class="st3" d="M98.3,93.2c0.3-4.4,1.5-7.8,5.3-9.7c1.9-0.9,3.8-0.4,5.1,1.3c3.3,4.3,1.8,12.2-2.8,15.1
		c-3.1,1.9-6.5,0.2-7.3-3.7C98.4,95.1,98.4,93.9,98.3,93.2z"/>
	<path class="st3" d="M86.5,108.1c-0.2,0.9-0.4,1.8-0.8,2.6c-1.1,2.6-3.6,3.6-6.2,2.5c-4.7-2-7.2-8.2-5.1-12.5
		c1.1-2.2,3.6-3.2,5.9-2.2C83.8,99.9,86.6,104.4,86.5,108.1z"/>
	<path class="st3" d="M121,102.9c-0.6,3.6-2.3,6.8-6,8.4c-3.1,1.4-6.2-0.4-6.6-3.7c-0.5-4,0.9-7.4,4.2-9.8c1.8-1.4,3.9-1.9,6-0.7
		C120.6,98.3,120.9,100.5,121,102.9z"/>
</g>
<g>
	<path class="st3" d="M35.5,154.7c-2.2-0.2-4.4-0.3-6.5-0.7c-3.2-0.6-6-0.1-8.8,1.6c-2,1.2-4.1,1.2-6.2,0.3c-2.6-1.2-3.6-2.8-3-5.6
		c0.9-4.4,3-8.2,5.9-11.6c4.9-5.6,8.6-5.9,14.7-1.7c3.5,2.4,6.3,5.5,8.6,9.1c0.3,0.5,0.5,1,0.7,1.5c1.4,3.4,0.2,5.7-3.4,6.6
		c-0.7,0.2-1.3,0.3-2,0.4C35.6,154.6,35.6,154.6,35.5,154.7z"/>
	<path class="st3" d="M20.6,123.6c0.1,1.9-0.1,3.8-1.4,5.4c-1.5,1.7-3.5,2-5.6,1c-4.1-2.1-6.9-7.8-5.9-12.3c0.8-3.9,4.1-5.4,7.4-3.2
		C18.2,116.6,20,119.7,20.6,123.6z"/>
	<path class="st3" d="M22.9,121.9c-0.3-4.4,0.4-7.9,3.9-10.3c1.7-1.2,3.7-1,5.2,0.5c3.8,3.8,3.5,11.8-0.6,15.4
		c-2.8,2.3-6.4,1.1-7.8-2.7C23.2,123.8,23.1,122.6,22.9,121.9z"/>
	<path class="st3" d="M13.3,138.3c-0.1,0.9-0.2,1.8-0.4,2.7c-0.7,2.8-3,4.1-5.8,3.3c-4.9-1.3-8.3-7.1-6.7-11.7
		c0.8-2.4,3.2-3.6,5.6-3C9.5,130.6,12.8,134.6,13.3,138.3z"/>
	<path class="st3" d="M46.7,128.4c-0.1,3.7-1.3,7.1-4.8,9.2c-2.9,1.8-6.1,0.5-7-2.8c-1.1-3.9-0.2-7.4,2.8-10.3
		c1.6-1.6,3.6-2.4,5.9-1.5C45.7,123.9,46.3,126,46.7,128.4z"/>
</g>
<g>
	<path class="st3" d="M93.4,45.9c-1.2-1.8-2.6-3.5-3.6-5.5c-1.6-2.8-3.8-4.7-6.8-5.8c-2.2-0.8-3.5-2.4-4.1-4.6
		c-0.7-2.7-0.1-4.5,2.4-5.9c3.9-2.1,8.3-2.9,12.7-2.8c7.4,0.2,10,2.9,10.7,10.2c0.4,4.3-0.2,8.4-1.6,12.4c-0.2,0.5-0.4,1-0.7,1.5
		c-1.7,3.2-4.3,3.8-7.2,1.6c-0.5-0.4-1.1-0.8-1.6-1.3C93.4,45.8,93.4,45.9,93.4,45.9z"/>
	<path class="st3" d="M107.9,14.5c-1.4,1.2-3,2.4-5.1,2.3c-2.2-0.1-3.8-1.4-4.3-3.7c-1-4.5,1.7-10.3,5.7-12.4
		c3.5-1.9,6.7-0.2,7.2,3.7C111.8,8.3,110.5,11.6,107.9,14.5z"/>
	<path class="st3" d="M110.6,15.3c3.2-3,6.4-4.7,10.5-3.6c2,0.6,3.1,2.2,2.9,4.4c-0.5,5.4-6.9,10.2-12.3,9.3
		c-3.6-0.6-4.9-4.2-2.9-7.7C109.4,16.7,110.2,15.9,110.6,15.3z"/>
	<path class="st3" d="M91.8,18.3c-0.8,0.5-1.5,1-2.3,1.4c-2.6,1.2-5.1,0.2-6.2-2.4C81.2,12.7,83.6,6.4,88,4.7
		c2.3-0.9,4.8,0.1,5.9,2.4C95.4,10.4,94.4,15.6,91.8,18.3z"/>
	<path class="st3" d="M120.7,37.8c-2.9,2.3-6.3,3.5-10.1,2.1c-3.2-1.1-4.3-4.4-2.3-7.2c2.3-3.3,5.6-4.9,9.7-4.4
		c2.3,0.2,4.2,1.2,4.9,3.6C123.6,34.2,122.4,35.9,120.7,37.8z"/>
</g>
<g>
	<path class="st3" d="M64.3,211c-1.5-1.6-3.2-3-4.6-4.7c-2.1-2.5-4.6-4-7.7-4.4c-2.3-0.3-3.9-1.7-4.9-3.7c-1.2-2.5-0.9-4.5,1.3-6.2
		c3.5-2.8,7.6-4.4,12-5.1c7.3-1.2,10.4,1,12.4,8.1c1.1,4.1,1.3,8.3,0.7,12.5c-0.1,0.5-0.2,1.1-0.4,1.6c-1.1,3.5-3.6,4.5-6.8,2.9
		C65.6,211.6,65,211.2,64.3,211C64.4,210.9,64.3,211,64.3,211z"/>
	<path class="st3" d="M72.8,177.5c-1.1,1.5-2.5,2.9-4.6,3.2c-2.2,0.4-4-0.7-4.9-2.8c-1.8-4.2-0.3-10.4,3.3-13.2
		c3.1-2.5,6.6-1.5,7.7,2.3C75.5,170.7,74.8,174.1,72.8,177.5z"/>
	<path class="st3" d="M75.6,177.7c2.6-3.5,5.4-5.8,9.6-5.4c2.1,0.2,3.5,1.6,3.7,3.8c0.5,5.4-4.9,11.3-10.3,11.4
		c-3.6,0-5.6-3.2-4.2-7C74.7,179.4,75.3,178.4,75.6,177.7z"/>
	<path class="st3" d="M57.7,184.2c-0.7,0.6-1.3,1.3-2,1.8c-2.3,1.7-4.9,1.2-6.6-1.2c-2.9-4.2-1.8-10.8,2.3-13.3
		c2.1-1.3,4.8-0.8,6.2,1.3C59.7,175.8,59.7,181,57.7,184.2z"/>
	<path class="st3" d="M89.7,198c-2.4,2.8-5.5,4.6-9.6,4c-3.4-0.5-5-3.6-3.6-6.7c1.7-3.7,4.6-5.8,8.7-6.2c2.3-0.2,4.3,0.4,5.5,2.6
		C91.9,193.9,91,195.9,89.7,198z"/>
</g>
</svg>
